<svg width="153" height="24" viewBox="0 0 153 24" fill="none" xmlns="http://www.w3.org/2000/svg">
<path d="M19.9 23L14.8 5.78L9.76 23H7.78L3.4 4.85C3.26 4.27 3.15 3.92 3.07 3.8C2.99 3.68 2.79 3.6 2.47 3.56L0.94 3.41V2.6H7.93V3.41L6.4 3.56C6.08 3.6 5.9 3.68 5.86 3.8C5.84 3.9 5.9 4.25 6.04 4.85L9.61 19.85L14.62 2.6H16.48L21.55 19.73L25.15 4.85C25.31 4.25 25.36 3.9 25.3 3.8C25.26 3.68 25.09 3.6 24.79 3.56L23.23 3.41V2.6H28.69V3.41L27.16 3.56C26.86 3.6 26.67 3.68 26.59 3.8C26.51 3.9 26.39 4.25 26.23 4.85L21.85 23H19.9ZM60.6576 2.6H76.6176V7.49H75.8376L74.9676 4.34C74.9076 4.1 74.8376 3.93 74.7576 3.83C74.6976 3.71 74.5676 3.64 74.3676 3.62C74.1676 3.58 73.8276 3.56 73.3476 3.56H69.9576V20.57C69.9576 21.27 69.9876 21.68 70.0476 21.8C70.1076 21.92 70.2976 22 70.6176 22.04L72.2676 22.22V23H65.0376V22.22L66.6876 22.04C67.0076 22 67.1976 21.92 67.2576 21.8C67.3176 21.68 67.3476 21.27 67.3476 20.57V3.56H63.9276C63.4676 3.56 63.1276 3.58 62.9076 3.62C62.7076 3.64 62.5676 3.71 62.4876 3.83C62.4276 3.93 62.3676 4.1 62.3076 4.34L61.4376 7.49H60.6576V2.6Z" fill="#0FBC84"/>
<path d="M41.1386 19.58C40.7786 20.94 40.0986 21.9 39.0986 22.46C38.1186 23.02 37.0286 23.3 35.8286 23.3C33.6086 23.3 31.9486 22.63 30.8486 21.29C29.7486 19.93 29.1986 18.12 29.1986 15.86V15.26C29.1986 13.02 29.7286 11.23 30.7886 9.89C31.8486 8.53 33.3886 7.85 35.4086 7.85C36.4886 7.85 37.4686 8.07 38.3486 8.51C39.2486 8.95 39.9586 9.6 40.4786 10.46C41.0186 11.32 41.2886 12.39 41.2886 13.67C41.2886 14.27 41.2286 14.9 41.1086 15.56H31.8986V16.46C31.8986 18.56 32.2186 20.07 32.8586 20.99C33.5186 21.89 34.5786 22.34 36.0386 22.34C36.9586 22.34 37.7186 22.1 38.3186 21.62C38.9386 21.14 39.3486 20.31 39.5486 19.13L41.1386 19.58ZM35.4086 8.81C34.2286 8.81 33.3486 9.26 32.7686 10.16C32.1886 11.06 31.8986 12.54 31.8986 14.6H38.6486V14.51C38.6886 14.25 38.7186 14 38.7386 13.76C38.7586 13.5 38.7686 13.27 38.7686 13.07C38.7686 11.57 38.4586 10.49 37.8386 9.83C37.2186 9.15 36.4086 8.81 35.4086 8.81ZM43.7003 1.61V0.8H48.4703V10.31C49.0503 9.45 49.7103 8.83 50.4503 8.45C51.1903 8.05 51.9903 7.85 52.8503 7.85C54.5703 7.85 55.9003 8.5 56.8403 9.8C57.8003 11.1 58.2803 12.92 58.2803 15.26V15.86C58.2803 18.14 57.7303 19.95 56.6303 21.29C55.5503 22.63 54.0303 23.3 52.0703 23.3C50.5103 23.3 49.2303 22.79 48.2303 21.77C47.9503 21.93 47.6903 22.13 47.4503 22.37C47.2103 22.61 46.9703 22.87 46.7303 23.15H46.0103V3.23C46.0103 2.53 45.9803 2.12 45.9203 2C45.8603 1.88 45.6703 1.8 45.3503 1.76L43.7003 1.61ZM52.4603 8.93C51.8403 8.93 51.1903 9.13 50.5103 9.53C49.8503 9.93 49.1703 10.74 48.4703 11.96V20.54C49.3303 21.72 50.4703 22.31 51.8903 22.31C53.1903 22.31 54.1303 21.82 54.7103 20.84C55.2903 19.84 55.5803 18.48 55.5803 16.76V14.36C55.5803 12.48 55.3103 11.11 54.7703 10.25C54.2303 9.37 53.4603 8.93 52.4603 8.93ZM78.0754 8.96V8.15H82.6954V10.55C83.3954 9.61 84.0954 8.93 84.7954 8.51C85.5154 8.07 86.2454 7.85 86.9854 7.85C87.6254 7.85 88.2254 8.04 88.7854 8.42C89.3454 8.8 89.8154 9.41 90.1954 10.25L88.2454 11.42C87.9454 10.7 87.6054 10.2 87.2254 9.92C86.8454 9.64 86.4254 9.5 85.9654 9.5C85.4654 9.5 84.9654 9.66 84.4654 9.98C83.9854 10.3 83.4454 10.9 82.8454 11.78V20.57C82.8454 21.27 82.8754 21.69 82.9354 21.83C82.9954 21.95 83.1854 22.02 83.5054 22.04L85.7554 22.22V23H78.0754V22.22L79.7254 22.04C80.0454 22 80.2354 21.92 80.2954 21.8C80.3554 21.68 80.3854 21.27 80.3854 20.57V10.58C80.3854 9.88 80.3554 9.47 80.2954 9.35C80.2354 9.23 80.0454 9.15 79.7254 9.11L78.0754 8.96ZM103.56 23.21C102 23.21 101.08 22.49 100.8 21.05C100.1 21.85 99.3304 22.43 98.4904 22.79C97.6504 23.13 96.8204 23.3 96.0004 23.3C94.6004 23.3 93.5704 22.91 92.9104 22.13C92.2504 21.35 91.9204 20.41 91.9204 19.31C91.9204 18.13 92.3204 17.2 93.1204 16.52C93.9404 15.82 95.3504 15.47 97.3504 15.47H100.74V13.04C100.74 11.44 100.46 10.34 99.9004 9.74C99.3604 9.12 98.6204 8.81 97.6804 8.81C97.0804 8.81 96.5404 8.93 96.0604 9.17C95.5804 9.41 95.2304 9.85 95.0104 10.49C94.8104 11.11 94.7904 12.02 94.9504 13.22L92.5804 12.86C92.4804 11.92 92.6004 11.08 92.9404 10.34C93.3004 9.58 93.8804 8.98 94.6804 8.54C95.5004 8.08 96.5204 7.85 97.7404 7.85C99.2004 7.85 100.32 8.1 101.1 8.6C101.88 9.08 102.42 9.71 102.72 10.49C103.04 11.27 103.2 12.12 103.2 13.04V19.79C103.2 20.81 103.31 21.45 103.53 21.71C103.77 21.97 104.03 22.1 104.31 22.1C104.49 22.1 104.68 22.06 104.88 21.98C105.08 21.88 105.3 21.73 105.54 21.53L106.08 22.28C105.78 22.54 105.42 22.76 105 22.94C104.6 23.12 104.12 23.21 103.56 23.21ZM96.8404 22.04C97.4004 22.04 98.0004 21.89 98.6404 21.59C99.3004 21.27 100 20.64 100.74 19.7V16.43H97.6804C96.5604 16.43 95.7404 16.66 95.2204 17.12C94.7204 17.56 94.4704 18.25 94.4704 19.19C94.4704 20.09 94.6604 20.79 95.0404 21.29C95.4404 21.79 96.0404 22.04 96.8404 22.04ZM122.912 22.25V23H118.292V20.63C117.672 21.55 116.982 22.23 116.222 22.67C115.482 23.09 114.652 23.3 113.732 23.3C112.012 23.3 110.672 22.66 109.712 21.38C108.772 20.08 108.302 18.25 108.302 15.89V15.29C108.302 13.03 108.852 11.23 109.952 9.89C111.072 8.53 112.602 7.85 114.542 7.85C115.962 7.85 117.162 8.29 118.142 9.17V3.23C118.142 2.53 118.112 2.12 118.052 2C117.992 1.88 117.802 1.8 117.482 1.76L115.832 1.61V0.8H120.602V20.57C120.602 21.27 120.632 21.68 120.692 21.8C120.752 21.92 120.942 22 121.262 22.04L122.912 22.25ZM111.002 16.79C111.002 18.67 111.272 20.05 111.812 20.93C112.372 21.81 113.142 22.25 114.122 22.25C114.762 22.25 115.422 22.05 116.102 21.65C116.782 21.25 117.462 20.44 118.142 19.22V10.64C117.262 9.46 116.112 8.87 114.692 8.87C113.412 8.87 112.472 9.36 111.872 10.34C111.292 11.32 111.002 12.67 111.002 14.39V16.79ZM137.584 19.58C137.224 20.94 136.544 21.9 135.544 22.46C134.564 23.02 133.474 23.3 132.274 23.3C130.054 23.3 128.394 22.63 127.294 21.29C126.194 19.93 125.644 18.12 125.644 15.86V15.26C125.644 13.02 126.174 11.23 127.234 9.89C128.294 8.53 129.834 7.85 131.854 7.85C132.934 7.85 133.914 8.07 134.794 8.51C135.694 8.95 136.404 9.6 136.924 10.46C137.464 11.32 137.734 12.39 137.734 13.67C137.734 14.27 137.674 14.9 137.554 15.56H128.344V16.46C128.344 18.56 128.664 20.07 129.304 20.99C129.964 21.89 131.024 22.34 132.484 22.34C133.404 22.34 134.164 22.1 134.764 21.62C135.384 21.14 135.794 20.31 135.994 19.13L137.584 19.58ZM131.854 8.81C130.674 8.81 129.794 9.26 129.214 10.16C128.634 11.06 128.344 12.54 128.344 14.6H135.094V14.51C135.134 14.25 135.164 14 135.184 13.76C135.204 13.5 135.214 13.27 135.214 13.07C135.214 11.57 134.904 10.49 134.284 9.83C133.664 9.15 132.854 8.81 131.854 8.81ZM140.566 8.96V8.15H145.186V10.55C145.886 9.61 146.586 8.93 147.286 8.51C148.006 8.07 148.736 7.85 149.476 7.85C150.116 7.85 150.716 8.04 151.276 8.42C151.836 8.8 152.306 9.41 152.686 10.25L150.736 11.42C150.436 10.7 150.096 10.2 149.716 9.92C149.336 9.64 148.916 9.5 148.456 9.5C147.956 9.5 147.456 9.66 146.956 9.98C146.476 10.3 145.936 10.9 145.336 11.78V20.57C145.336 21.27 145.366 21.69 145.426 21.83C145.486 21.95 145.676 22.02 145.996 22.04L148.246 22.22V23H140.566V22.22L142.216 22.04C142.536 22 142.726 21.92 142.786 21.8C142.846 21.68 142.876 21.27 142.876 20.57V10.58C142.876 9.88 142.846 9.47 142.786 9.35C142.726 9.23 142.536 9.15 142.216 9.11L140.566 8.96Z" fill="#757575"/>
</svg>
