<svg width="144" height="23" viewBox="0 0 144 23" fill="none" xmlns="http://www.w3.org/2000/svg">
<path d="M0.9375 1.87305C0.78125 1.28711 0.908203 0.994141 1.31836 0.994141H3.10547C3.41797 0.994141 3.62793 1.21875 3.73535 1.66797L7.00195 15.7451C7.13867 16.3115 7.29004 16.9268 7.45605 17.5908C7.63184 18.2549 7.7832 18.8799 7.91016 19.4658H7.9834C8.08105 18.8896 8.19336 18.3184 8.32031 17.752C8.45703 17.1855 8.6084 16.5215 8.77441 15.7598L12.1143 1.78516C12.2412 1.25781 12.5537 0.994141 13.0518 0.994141H15.0732C15.5713 0.994141 15.8838 1.25781 16.0107 1.78516L19.3506 15.7598C19.5166 16.5215 19.6631 17.1855 19.79 17.752C19.9268 18.3184 20.0439 18.8896 20.1416 19.4658H20.2148C20.3418 18.8799 20.4883 18.2549 20.6543 17.5908C20.8301 16.9268 20.9863 16.3115 21.123 15.7451L24.3896 1.66797C24.4971 1.21875 24.707 0.994141 25.0195 0.994141H26.8066C27.2168 0.994141 27.3438 1.28711 27.1875 1.87305L22.1484 20.8721C21.9531 21.624 21.5918 22 21.0645 22H19.2334C18.7451 22 18.3984 21.5898 18.1934 20.7695L14.6631 6.72168C14.4873 6.00879 14.3604 5.42773 14.2822 4.97852C14.2041 4.51953 14.1357 4.0459 14.0771 3.55762H14.0479C13.9893 4.0459 13.9209 4.51953 13.8428 4.97852C13.7646 5.42773 13.6377 6.00879 13.4619 6.72168L9.93164 20.7695C9.72656 21.5898 9.37988 22 8.8916 22H7.06055C6.5332 22 6.17188 21.624 5.97656 20.8721L0.9375 1.87305ZM28.9014 14.3096C28.9014 11.8877 29.5068 9.95898 30.7178 8.52344C31.9287 7.08789 33.6621 6.37012 35.918 6.37012C37.793 6.37012 39.3457 7.0293 40.5762 8.34766C41.8164 9.65625 42.4365 11.751 42.4365 14.6318C42.4365 15.0713 42.2363 15.291 41.8359 15.291H31.626C31.792 17.1758 32.2998 18.4893 33.1494 19.2314C33.999 19.9639 34.9609 20.3301 36.0352 20.3301C37.168 20.3301 38.0371 20.1396 38.6426 19.7588C39.248 19.3779 39.6924 19.002 39.9756 18.6309C40.2881 18.2207 40.5908 18.1426 40.8838 18.3965L41.748 19.1436C41.9727 19.3389 41.9727 19.6074 41.748 19.9492C41.5625 20.2324 41.0303 20.6865 40.1514 21.3115C39.2822 21.9365 37.9102 22.249 36.0352 22.249C33.5938 22.249 31.792 21.5312 30.6299 20.0957C29.4775 18.6602 28.9014 16.7314 28.9014 14.3096ZM31.5674 13.3867H39.8438C39.8047 12.0195 39.4531 10.8232 38.7891 9.79785C38.125 8.7627 37.1484 8.24512 35.8594 8.24512C34.7266 8.24512 33.7646 8.62598 32.9736 9.3877C32.1826 10.1396 31.7139 11.4727 31.5674 13.3867ZM46.4795 22C46.04 22 45.8203 21.7803 45.8203 21.3408V1.03809C45.8203 0.598633 46.04 0.378906 46.4795 0.378906H47.7393C48.1787 0.378906 48.3984 0.598633 48.3984 1.03809V7.55664C48.3984 7.85938 48.3887 8.15723 48.3691 8.4502H48.3984C48.9355 7.80566 49.541 7.29785 50.2148 6.92676C50.8887 6.55566 51.7871 6.37012 52.9102 6.37012C54.8633 6.37012 56.3477 7.1709 57.3633 8.77246C58.3789 10.3643 58.8867 12.21 58.8867 14.3096C58.8867 16.4092 58.3789 18.2598 57.3633 19.8613C56.3477 21.4531 54.8633 22.249 52.9102 22.249C51.7871 22.249 50.8887 22.0635 50.2148 21.6924C49.541 21.3213 48.9355 20.8135 48.3984 20.1689H48.3691L48.2812 21.3408C48.252 21.7803 48.0615 22 47.71 22H46.4795ZM48.3984 15.9941C48.3984 17.459 48.7451 18.5527 49.4385 19.2754C50.1416 19.9883 51.0205 20.3447 52.0752 20.3447C53.5596 20.3447 54.6094 19.7881 55.2246 18.6748C55.8496 17.5615 56.1621 16.1064 56.1621 14.3096C56.1621 12.5127 55.8496 11.0576 55.2246 9.94434C54.6094 8.83105 53.5596 8.27441 52.0752 8.27441C51.0205 8.27441 50.1416 8.63574 49.4385 9.3584C48.7451 10.0713 48.3984 11.1602 48.3984 12.625V15.9941ZM61.4795 3.51367C60.9424 3.51367 60.6738 3.29395 60.6738 2.85449V1.65332C60.6738 1.21387 60.9424 0.994141 61.4795 0.994141H76.9775C77.5146 0.994141 77.7832 1.21387 77.7832 1.65332V2.85449C77.7832 3.29395 77.5146 3.51367 76.9775 3.51367H70.6348V21.1943C70.6348 21.7314 70.3906 22 69.9023 22H68.5547C68.0664 22 67.8223 21.7314 67.8223 21.1943V3.51367H61.4795ZM77.4463 22C77.0068 22 76.7871 21.7803 76.7871 21.3408V7.27832C76.7871 6.83887 77.0068 6.61914 77.4463 6.61914H78.6768C79.1162 6.61914 79.3359 6.83887 79.3359 7.27832V9.03613H79.3945C79.8633 8.15723 80.415 7.49316 81.0498 7.04395C81.6846 6.59473 82.4756 6.37012 83.4229 6.37012C84.0479 6.37012 84.4873 6.42383 84.7412 6.53125C84.9658 6.61914 85.0488 6.76562 84.9902 6.9707L84.6533 8.17188C84.6045 8.34766 84.4775 8.41602 84.2725 8.37695C83.9307 8.30859 83.6084 8.27441 83.3057 8.27441C82.1631 8.27441 81.2207 8.79199 80.4785 9.82715C79.7363 10.8525 79.3652 12.2539 79.3652 14.0312V21.3408C79.3652 21.7803 79.1455 22 78.7061 22H77.4463ZM86.5283 17.8984C86.5283 16.1602 87.3389 14.8857 88.96 14.0752C90.5908 13.2646 93.0225 12.791 96.2549 12.6543V11.6582C96.2549 10.7402 96.0449 9.94922 95.625 9.28516C95.2148 8.61133 94.3945 8.27441 93.1641 8.27441C92.3828 8.27441 91.7578 8.35254 91.2891 8.50879C90.8203 8.65527 90.3906 8.85547 90 9.10938C89.6191 9.35352 89.2529 9.6709 88.9014 10.0615C88.6377 10.3545 88.3887 10.3691 88.1543 10.1055L87.3926 9.22656C87.1777 8.98242 87.251 8.68945 87.6123 8.34766C88.1299 7.85938 88.6328 7.49316 89.1211 7.24902C89.6094 7.00488 90.2148 6.7998 90.9375 6.63379C91.6699 6.45801 92.4121 6.37012 93.1641 6.37012C95.2051 6.37012 96.6602 6.89746 97.5293 7.95215C98.3984 8.99707 98.833 10.4326 98.833 12.2588V21.3408C98.833 21.7803 98.6133 22 98.1738 22H96.8555C96.4746 22 96.2842 21.7803 96.2842 21.3408V20.623H96.2549C95.4834 21.2285 94.7266 21.6533 93.9844 21.8975C93.252 22.1318 92.4316 22.249 91.5234 22.249C89.9219 22.249 88.6865 21.8682 87.8174 21.1064C86.958 20.335 86.5283 19.2656 86.5283 17.8984ZM89.1943 17.957C89.1943 18.5625 89.3213 19.0508 89.5752 19.4219C89.8291 19.7832 90.1807 20.0176 90.6299 20.125C91.0791 20.2227 91.5479 20.2715 92.0361 20.2715C92.7881 20.2715 93.501 20.1982 94.1748 20.0518C94.8486 19.9053 95.542 19.5195 96.2549 18.8945V14.5732C94.2822 14.7197 92.876 14.9004 92.0361 15.1152C91.1963 15.3203 90.5127 15.6816 89.9854 16.1992C89.458 16.707 89.1943 17.293 89.1943 17.957ZM102.173 14.3096C102.173 12.21 102.681 10.3643 103.696 8.77246C104.712 7.1709 106.196 6.37012 108.149 6.37012C109.272 6.37012 110.171 6.55566 110.845 6.92676C111.519 7.29785 112.124 7.80566 112.661 8.4502H112.69C112.671 8.15723 112.661 7.85938 112.661 7.55664V1.03809C112.661 0.598633 112.881 0.378906 113.32 0.378906H114.58C115.02 0.378906 115.239 0.598633 115.239 1.03809V21.3408C115.239 21.7803 115.02 22 114.58 22H113.35C112.998 22 112.808 21.7803 112.778 21.3408L112.69 20.1689H112.661C112.124 20.8135 111.519 21.3213 110.845 21.6924C110.171 22.0635 109.272 22.249 108.149 22.249C106.196 22.249 104.712 21.4531 103.696 19.8613C102.681 18.2598 102.173 16.4092 102.173 14.3096ZM104.897 14.3096C104.897 16.1064 105.205 17.5615 105.82 18.6748C106.445 19.7881 107.5 20.3447 108.984 20.3447C110.039 20.3447 110.913 19.9883 111.606 19.2754C112.31 18.5527 112.661 17.459 112.661 15.9941V12.625C112.661 11.1602 112.31 10.0713 111.606 9.3584C110.913 8.63574 110.039 8.27441 108.984 8.27441C107.5 8.27441 106.445 8.83105 105.82 9.94434C105.205 11.0576 104.897 12.5127 104.897 14.3096ZM118.579 14.3096C118.579 11.8877 119.185 9.95898 120.396 8.52344C121.606 7.08789 123.34 6.37012 125.596 6.37012C127.471 6.37012 129.023 7.0293 130.254 8.34766C131.494 9.65625 132.114 11.751 132.114 14.6318C132.114 15.0713 131.914 15.291 131.514 15.291H121.304C121.47 17.1758 121.978 18.4893 122.827 19.2314C123.677 19.9639 124.639 20.3301 125.713 20.3301C126.846 20.3301 127.715 20.1396 128.32 19.7588C128.926 19.3779 129.37 19.002 129.653 18.6309C129.966 18.2207 130.269 18.1426 130.562 18.3965L131.426 19.1436C131.65 19.3389 131.65 19.6074 131.426 19.9492C131.24 20.2324 130.708 20.6865 129.829 21.3115C128.96 21.9365 127.588 22.249 125.713 22.249C123.271 22.249 121.47 21.5312 120.308 20.0957C119.155 18.6602 118.579 16.7314 118.579 14.3096ZM121.245 13.3867H129.521C129.482 12.0195 129.131 10.8232 128.467 9.79785C127.803 8.7627 126.826 8.24512 125.537 8.24512C124.404 8.24512 123.442 8.62598 122.651 9.3877C121.86 10.1396 121.392 11.4727 121.245 13.3867ZM136.157 22C135.718 22 135.498 21.7803 135.498 21.3408V7.27832C135.498 6.83887 135.718 6.61914 136.157 6.61914H137.388C137.827 6.61914 138.047 6.83887 138.047 7.27832V9.03613H138.105C138.574 8.15723 139.126 7.49316 139.761 7.04395C140.396 6.59473 141.187 6.37012 142.134 6.37012C142.759 6.37012 143.198 6.42383 143.452 6.53125C143.677 6.61914 143.76 6.76562 143.701 6.9707L143.364 8.17188C143.315 8.34766 143.188 8.41602 142.983 8.37695C142.642 8.30859 142.319 8.27441 142.017 8.27441C140.874 8.27441 139.932 8.79199 139.189 9.82715C138.447 10.8525 138.076 12.2539 138.076 14.0312V21.3408C138.076 21.7803 137.856 22 137.417 22H136.157Z" fill="url(#paint0_linear_1_2)"/>
<defs>
<linearGradient id="paint0_linear_1_2" x1="0" y1="9.5" x2="158" y2="9.5" gradientUnits="userSpaceOnUse">
<stop stop-color="#31C392"/>
<stop offset="1" stop-color="#078D60" stop-opacity="0.858824"/>
</linearGradient>
</defs>
</svg>
